# xmcd
#
# Track frame offsets:
# 150
# 19682
# 57810
# 82565
# 108282
# 132215
# 155332
# 172302
# 203822
# 226242
# 269372
# 276347
# 286592
#
# Disc length: 4031 seconds
#
#
# Revision: 0
# Processed by: cddbd v1.4PL0 Copyright (c) Steve Scherf et al.
# Submitted via: FreeRIP 2.00 
#
DISCID=a60fbd0d
DTITLE=Otis Grand - Live anthology
DYEAR=2000
DGENRE=Blues
TTITLE0=The freeze
TTITLE1=Blues from the heart
TTITLE2=No love in my heart for you
TTITLE3=In the open
TTITLE4=The things I forgot to do
TTITLE5=Buzz me
TTITLE6=Lonely man
TTITLE7=Come on in this house
TTITLE8=Blues is king
TTITLE9=Blues get off my shoulder
TTITLE10=OG ballbuster
TTITLE11=Looking good
TTITLE12=38th street blues
EXTD=
EXTT0=
EXTT1=
EXTT2=
EXTT3=
EXTT4=
EXTT5=
EXTT6=
EXTT7=
EXTT8=
EXTT9=
EXTT10=
EXTT11=
EXTT12=
PLAYORDER=
